<svg xmlns="http://www.w3.org/2000/svg" aria-hidden="true" style="position:absolute;width:0;height:0;overflow:hidden"><defs><symbol id="arrow-back" viewBox="0 0 107 32"><path  d="M.587 17.413C.226 17.051.002 16.552.002 16s.224-1.052.585-1.413L13.314 1.858a2.001 2.001 0 0 1 2.83 2.83l-9.316 9.313h97.84a2 2 0 1 1 0 4H6.829l9.315 9.313a2.001 2.001 0 0 1-2.83 2.83L.587 17.415z" /></symbol><symbol id="burger-back" viewBox="0 0 80 32"><path  d="M77.714 0H2.285a2.286 2.286 0 0 0 0 4.572h75.429a2.286 2.286 0 0 0 0-4.572zM77.714 13.714H20.571a2.286 2.286 0 0 0 0 4.572h57.143a2.286 2.286 0 0 0 0-4.572zM77.714 27.429h-32a2.286 2.286 0 0 0 0 4.572h32a2.286 2.286 0 0 0 0-4.572z" /></symbol><symbol id="burger" viewBox="0 0 80 32"><path  d="M2.286 0h75.429a2.286 2.286 0 0 1 0 4.572H2.286a2.286 2.286 0 0 1 0-4.572zM2.286 13.714h57.143a2.286 2.286 0 0 1 0 4.572H2.286a2.286 2.286 0 0 1 0-4.572zM2.286 27.429h32a2.286 2.286 0 0 1 0 4.572h-32a2.286 2.286 0 0 1 0-4.572z" /></symbol><symbol id="vib" viewBox="0 0 32 32"><path  d="M23.141 18.938c-.839-.713-1.227-.928-2.386-1.63-.484-.292-1.22-.544-1.605-.544-.264 0-.58.204-.773.398-.495.5-.658 1.125-1.526 1.125-.851 0-2.335-.872-3.4-2-1.118-1.074-1.984-2.571-1.984-3.428 0-.876.61-1.052 1.105-1.552.194-.194.406-.513.406-.779 0-.389-.249-1.12-.539-1.606-.696-1.17-.909-1.561-1.618-2.406-.239-.287-.512-.418-.797-.418-.483-.002-1.116.24-1.547.563-.644.485-1.319 1.146-1.5 1.968a1.853 1.853 0 0 0-.043.334v.004c-.035.857.3 1.727.66 2.464.849 1.737 1.972 3.417 3.194 4.918.39.48.816.926 1.256 1.357.428.444.871.873 1.347 1.268 1.488 1.232 3.156 2.364 4.876 3.22.724.36 1.577.691 2.418.667.121-.004.24-.018.361-.044.816-.181 1.471-.862 1.952-1.514.32-.433.56-1.071.558-1.558 0-.288-.13-.564-.414-.805zm.411-3.696a.76.76 0 0 1-.756-.759v-.765c0-3.78-3.051-6.857-6.8-6.857a.76.76 0 0 1-.756-.759v-.003a.76.76 0 0 1 .756-.763c4.582 0 8.311 3.76 8.311 8.381v.762a.76.76 0 0 1-.756.762zm-4.639-1.526a.757.757 0 0 1-.73-.565l-.001-.005a2.274 2.274 0 0 0-1.602-1.628l-.016-.004a.765.765 0 0 1-.541-.935l-.001.005a.758.758 0 0 1 .927-.546l-.005-.001a3.803 3.803 0 0 1 2.695 2.696l.006.026a.763.763 0 0 1-.731.955z" /><path  d="M21.284 14.478a.76.76 0 0 1-.756-.759v-.003c0-2.428-1.884-4.433-4.29-4.56a.76.76 0 0 1-.716-.758l.001-.045v.002a.761.761 0 0 1 .796-.721h-.002c3.209.171 5.722 2.843 5.722 6.082a.76.76 0 0 1-.756.762z" /><path  d="M16 0C12.6 0 7.302.316 4.075 3.289 1.793 5.579.889 8.792.889 12.951c0 .345-.001.729.002 1.143-.002.415-.002.799-.002 1.143 0 4.16.904 7.373 3.186 9.664 1.228 1.132 2.761 1.876 4.37 2.366v3.494c0 1.216.793 1.238.938 1.238h.007c.373-.002.696-.187 1.02-.476.121-.108 1.526-1.687 3.053-3.413.91.058 1.774.08 2.538.08 3.4 0 8.697-.316 11.925-3.29 2.281-2.291 3.186-5.505 3.186-9.664 0-.344.001-.729-.002-1.143.003-.414.002-.797.002-1.142 0-4.16-.904-7.373-3.186-9.664C24.698.315 19.402-.001 16.001-.001zm12.844 14.972v.265c0 3.738-.789 6.284-2.483 8.009-2.933 2.658-8.52 2.658-10.362 2.658-.561 0-1.471 0-2.544-.076l-3.5 3.949v-4.468c-1.589-.385-3.16-1.015-4.316-2.062-1.693-1.725-2.484-4.273-2.484-8.011v-.265c0-.268 0-.556.002-.894l-.002-.603v-.272.014-.266c0-3.738.79-6.284 2.484-8.009C8.571 2.283 14.159 2.283 16 2.283s7.429 0 10.362 2.658c1.693 1.724 2.483 4.271 2.483 8.009v.266c0 .267 0 .556-.002.893.002.306.002.594.002.861z" /></symbol><symbol id="tg" viewBox="0 0 32 32"><path  d="M16 0C7.162 0 0 7.162 0 16s7.162 16 16 16c8.838 0 16-7.163 16-16S24.837 0 16 0zm7.863 10.969-2.625 12.369c-.181.881-.712 1.087-1.45.681l-4-2.956-1.919 1.869c-.225.219-.4.4-.8.4-.519 0-.431-.194-.606-.688L11.1 18.169l-3.956-1.231c-.856-.262-.862-.85.194-1.269l15.412-5.95c.7-.319 1.381.169 1.113 1.25z" /></symbol><symbol id="quality" viewBox="0 0 32 32"><path fill="#f0b69c" d="m15.761 1.387 3.322 1.925h3.85l1.925 3.353 3.353 1.925v3.85l1.925 3.322-1.925 3.322v3.85l-3.353 1.925-1.925 3.353h-3.85l-3.322 1.925-3.322-1.925h-3.85l-1.925-3.353-3.353-1.925v-3.85l-1.925-3.322 1.925-3.322V8.59l3.353-1.925 1.925-3.353h3.85l3.322-1.925z" style="fill:var(--color4, #f0b69c)"/><path fill="#f6f7f1" d="M15.761 26.285c-5.805 0-10.524-4.719-10.524-10.524S9.956 5.237 15.761 5.237s10.524 4.719 10.524 10.524-4.719 10.524-10.524 10.524zm0-20.148c-5.309 0-9.624 4.315-9.624 9.624s4.315 9.624 9.624 9.624 9.624-4.315 9.624-9.624-4.315-9.624-9.624-9.624z" style="fill:var(--color2, #f6f7f1)"/><path fill="#074050" d="m14.613 19.673-4.564-3.632c-.373-.31-.435-.838-.124-1.211s.838-.435 1.211-.124l3.912 3.136 5.216-5.836c.31-.341.869-.373 1.211-.062s.373.869.062 1.211l-5.743 6.426a.868.868 0 0 1-1.18.093z" style="fill:var(--color1, #074050)"/></symbol><symbol id="phone" viewBox="0 0 32 32"><path  d="M14.367 6.808c.938 1.039.64 2.216-.189 3.333a8.75 8.75 0 0 1-.699.815l.002-.002c-.13.138-.233.242-.447.457l-1.227 1.227c-.161.16.936 2.353 3.066 4.485 2.128 2.13 4.321 3.228 4.482 3.066l1.226-1.226c.676-.676 1.033-1.002 1.524-1.324 1.022-.67 2.136-.852 3.075-.012 3.068 2.194 4.804 3.54 5.655 4.424 1.659 1.724 1.441 4.377.01 5.89a60.958 60.958 0 0 1-1.849 1.852l-.021.02c-4.5 4.5-13.993 1.761-21.269-5.521C.428 17.008-2.309 7.514 2.18 3.023c.806-.818 1.071-1.084 1.856-1.857C5.498-.274 8.273-.5 9.961 1.167c.887.877 2.302 2.697 4.406 5.64zm8.476 14.417-1.226 1.227c-2.084 2.085-5.634-.692-9.006-4.067-3.374-3.378-5.15-5.926-3.065-8.01l1.226-1.226c.196-.197.285-.288.393-.4.147-.155.267-.29.364-.41-1.865-2.597-3.132-4.22-3.815-4.895-.353-.349-1.144-.284-1.434.001-.773.763-1.028 1.017-1.83 1.832-2.887 2.888-1.1 10.974 5.096 17.175 6.193 6.199 14.279 7.987 17.188 5.078a58.943 58.943 0 0 0 1.768-1.768l.02-.021c.332-.35.39-1.074.01-1.47-.637-.66-2.193-1.874-4.88-3.804-.196.158-.437.386-.809.758z" /></symbol><symbol id="material" viewBox="0 0 32 32"><path fill="#074050" d="M16.5 29.5a.5.5 0 0 1-.5-.5v-3a.5.5 0 0 1 1 0v3a.5.5 0 0 1-.5.5zm12 0a.5.5 0 0 1-.5-.5v-3a.5.5 0 0 1 1 0v3a.5.5 0 0 1-.5.5zm-6 0a.5.5 0 0 1-.5-.5v-3a.501.501 0 0 1 1-.001V29a.5.5 0 0 1-.5.5zm3 0a.5.5 0 0 1-.5-.5v-3.015a.5.5 0 0 1 1 0v.016V26v3a.5.5 0 0 1-.5.5zm-6 0a.5.5 0 0 1-.5-.5v-3a.5.5 0 0 1 1 0v3a.5.5 0 0 1-.5.5z" style="fill:var(--color1, #074050)"/><path fill="#f0b69c" d="M28.5 24.5h-12a.5.5 0 0 1-.5-.5v-9a.5.5 0 0 1 1 0v8.5h11V15a.5.5 0 0 1 1 0v9a.5.5 0 0 1-.5.5z" style="fill:var(--color4, #f0b69c)"/><path fill="#f0b69c" d="M28.5 15.5h-25A2.503 2.503 0 0 1 1 13V5a2.502 2.502 0 0 1 2.5-2.5h20a.5.5 0 0 1 0 1h-20A1.5 1.5 0 0 0 2 5v8a1.5 1.5 0 0 0 1.5 1.5h25A1.5 1.5 0 0 0 30 13V5a1.5 1.5 0 0 0-1.5-1.5h-1a.5.5 0 0 1 0-1h1A2.503 2.503 0 0 1 31 5v8a2.503 2.503 0 0 1-2.5 2.5z" style="fill:var(--color4, #f0b69c)"/><path fill="#074050" d="M9.5 13.5A.5.5 0 0 1 9 13V4.985a.5.5 0 0 1 1 0v.016V5v8a.5.5 0 0 1-.5.5zm-3 0A.5.5 0 0 1 6 13V4.985a.5.5 0 0 1 1 0v.016V5v8a.5.5 0 0 1-.5.5z" style="fill:var(--color1, #074050)"/><path fill="#074050" d="M13 8H5a.5.5 0 0 1 0-1h8a.5.5 0 0 1 0 1zm-1.5 3H3.485a.5.5 0 0 1 0-1h.016H3.5h8.015a.5.5 0 0 1 0 1h-.016.001zM26 18.5h-6.001a.501.501 0 0 1-.001-1h6.001a.501.501 0 0 1 .001 1h-.001zm-1 3h-6.001a.5.5 0 0 1 0-1h6a.5.5 0 0 1 0 1z" style="fill:var(--color1, #074050)"/><path fill="#074050" d="M21 22.5a.5.5 0 0 1-.5-.5v-5.001a.5.5 0 0 1 1 0V22a.5.5 0 0 1-.5.5zm3 0a.5.5 0 0 1-.5-.5v-5.001a.5.5 0 0 1 1 0V22a.5.5 0 0 1-.5.5z" style="fill:var(--color1, #074050)"/></symbol><symbol id="inst" viewBox="0 0 32 32"><path  d="M16 2.881c4.275 0 4.781.019 6.462.094 1.563.069 2.406.331 2.969.55.72.27 1.334.677 1.836 1.193l.001.001a5.013 5.013 0 0 1 1.188 1.804l.012.034c.219.563.481 1.412.55 2.969.075 1.688.094 2.194.094 6.463s-.019 4.781-.094 6.463c-.069 1.563-.331 2.406-.55 2.969a4.976 4.976 0 0 1-1.193 1.836l-.001.001a5.023 5.023 0 0 1-1.803 1.188l-.034.012c-.563.219-1.413.481-2.969.55-1.688.075-2.194.094-6.463.094s-4.781-.019-6.463-.094c-1.563-.069-2.406-.331-2.969-.55a4.972 4.972 0 0 1-1.837-1.193l-.001-.001a5.023 5.023 0 0 1-1.188-1.803l-.012-.034c-.219-.563-.481-1.413-.55-2.969-.075-1.688-.094-2.194-.094-6.463s.019-4.781.094-6.463c.069-1.563.331-2.406.55-2.969a4.98 4.98 0 0 1 1.193-1.837l.001-.001a5.013 5.013 0 0 1 1.804-1.188l.034-.012c.563-.219 1.412-.481 2.969-.55 1.681-.075 2.188-.094 6.463-.094H16zM16 0c-4.344 0-4.887.019-6.594.094-1.7.075-2.869.35-3.881.744-1.056.412-1.95.956-2.837 1.85A7.856 7.856 0 0 0 .856 5.465l-.018.054C.444 6.538.169 7.7.094 9.4.019 11.113 0 11.656 0 16s.019 4.887.094 6.594c.075 1.7.35 2.869.744 3.881.413 1.056.956 1.95 1.85 2.837a7.822 7.822 0 0 0 2.778 1.826l.053.018c1.019.394 2.181.669 3.881.744 1.706.075 2.25.094 6.594.094s4.888-.019 6.594-.094c1.7-.075 2.869-.35 3.881-.744a7.838 7.838 0 0 0 2.83-1.843l.001-.001a7.85 7.85 0 0 0 1.826-2.777l.018-.054c.394-1.019.669-2.181.744-3.881.075-1.706.094-2.25.094-6.594s-.019-4.887-.094-6.594c-.075-1.7-.35-2.869-.744-3.881a7.547 7.547 0 0 0-1.829-2.842l-.002-.002A7.827 7.827 0 0 0 26.536.861l-.053-.018C25.464.449 24.302.174 22.602.099c-1.712-.081-2.256-.1-6.6-.1L16.001 0z" /><path  d="M16 7.781A8.22 8.22 0 0 0 7.781 16 8.22 8.22 0 0 0 16 24.219 8.22 8.22 0 0 0 24.219 16 8.22 8.22 0 0 0 16 7.781zm0 13.55a5.332 5.332 0 0 1 0-10.664 5.332 5.332 0 0 1-.001 10.664zM26.462 7.456a1.919 1.919 0 1 1-3.838 0 1.919 1.919 0 1 1 3.838 0z" /></symbol><symbol id="email" viewBox="0 0 32 32"><path  d="M16.363 22.364h-.002l-2.528-.012-7.371-6.504V6.581c0-.562.45-1.007 1.004-1.007h17.067c.547 0 1.004.453 1.004 1.014v9.147l-7.426 6.639h-1.749v-.01zM16.088.788 16 .711l-.089.077-3.84 3.38H7.46A2.402 2.402 0 0 0 5.058 6.57v3.771l-3.413 3.004v15.996a2.402 2.402 0 0 0 2.403 2.402h23.899a2.409 2.409 0 0 0 2.409-2.401V13.345l-.044-.04-3.369-2.964V6.574a2.404 2.404 0 0 0-2.404-2.404H19.93L16.09.79zM14.16 4.169 16 2.546l1.84 1.623h-3.68zm12.782 10.456v-2.43l1.372 1.21-1.372 1.22zm-21.884-2.43v2.43l-1.372-1.22 1.372-1.211zm21.959 18.143H4.982l7.653-6.56h6.729l7.653 6.56zm1.7-.365-8.533-7.447 8.767-7.689v14.496a.999.999 0 0 1-.234.64zM3.049 14.836l8.766 7.689-8.532 7.449a.992.992 0 0 1-.234-.641V14.835z" /></symbol><symbol id="diversity" viewBox="0 0 32 32"><path fill="#f0b69c" d="M20 21v9H27.653c.744 0 1.347-.603 1.347-1.347V21h-9z" style="fill:var(--color4, #f0b69c)"/><path fill="#074050" d="M20 21h-9v9h9v-8.999z" style="fill:var(--color1, #074050)"/><path fill="#f0b69c" d="M2 21V28.653C2 29.397 2.603 30 3.347 30h7.652v-9.001H2z" style="fill:var(--color4, #f0b69c)"/><path d="M11 13H2v9h8.999v-8.999z" opacity=".2" style="fill:var(--color5, #000)"/><path fill="#f3d0b7" stroke="#f3d0b7" stroke-width=".478" d="M2.239 20.761v-8.523h8.522v8.523H2.239z" style="fill:var(--color3, #f3d0b7);stroke:var(--color3, #f3d0b7)"/><path d="M20 13h-9v9h9v-8.999z" opacity=".2" style="fill:var(--color5, #000)"/><path fill="#3e95de" d="M20 12h-9v9h9v-9z" style="fill:var(--color6, #3e95de)"/><path d="M29 13h-9v9h9v-8.999z" opacity=".2" style="fill:var(--color5, #000)"/><path fill="#f3d0b7" stroke="#f3d0b7" stroke-width=".478" d="M20.299 20.702v-8.523h8.523v8.523h-8.523z" style="fill:var(--color3, #f3d0b7);stroke:var(--color3, #f3d0b7)"/><path d="M20 4v9h9V5.346c0-.744-.603-1.347-1.347-1.347h-7.654z" opacity=".2" style="fill:var(--color5, #000)"/><path fill="#ffe5d3" d="M20 3v9h9V4.347C29 3.603 28.397 3 27.653 3h-7.654z" style="fill:var(--color7, #ffe5d3)"/><path d="M20 4h-9v9h9V4z" opacity=".2" style="fill:var(--color5, #000)"/><path fill="#71b1c2" d="M20 3h-9v9h9V3z" style="fill:var(--color8, #71b1c2)"/><path d="M3.35 4h-.003C2.603 4 2 4.603 2 5.347v7.654h9V4H3.35z" opacity=".2" style="fill:var(--color5, #000)"/><path fill="#b3d1d9" d="M3.35 3h-.003C2.603 3 2 3.603 2 4.347v7.654h9v-9H3.35z" style="fill:var(--color9, #b3d1d9)"/><path d="M2 28.65v1.003C2 30.397 2.603 31 3.347 31h24.306c.744 0 1.347-.603 1.347-1.347V28.65v.003c0 .744-.603 1.347-1.347 1.347H3.347A1.347 1.347 0 0 1 2 28.653v-.003z" opacity=".2" style="fill:var(--color5, #000)"/><path fill="#f6f7f1" d="M3.349 3h-.003C2.602 3 2 3.603 2 4.346V5.35v-.003c0-.744.603-1.346 1.346-1.346h24.306c.744 0 1.347.603 1.347 1.347v.003-1.003c0-.744-.603-1.347-1.347-1.347H3.348z" opacity=".2" style="fill:var(--color2, #f6f7f1)"/></symbol><symbol id="cart" viewBox="0 0 32 32"><path  d="M11.5 29a2.5 2.5 0 1 1-5 0 2.5 2.5 0 1 1 5 0zm20 0a2.5 2.5 0 1 1-5 0 2.5 2.5 0 1 1 5 0zM7.5 4v.5h24v11.07l-26 3.982V20A2.5 2.5 0 0 0 8 22.5h23.5v1H8a3.501 3.501 0 0 1-2.192-6.228l.007-.005.216-.173-.032-.275L4.497 3.942 4.445 3.5H.5v-1H6A1.5 1.5 0 0 1 7.5 4z" /></symbol></defs></svg>