<svg xmlns="http://www.w3.org/2000/svg" width="20" height="20" fill="none"><g fill="#F3D0B7" stroke="#F3D0B7" stroke-width=".591" clip-path="url(#a)"><path d="M7.699 17.68a1.477 1.477 0 1 1-2.954 0 1.477 1.477 0 0 1 2.954 0ZM19.514 17.68a1.477 1.477 0 1 1-2.954 0 1.477 1.477 0 0 1 2.954 0ZM5.336 2.91v.296H19.514v6.54L4.404 12.06l-.25.039v.265c0 .816.661 1.477 1.477 1.477h13.883v.591H5.631a2.068 2.068 0 0 1-1.291-3.682l.128-.102-.02-.163-.887-7.607-.03-.261H1.2v-.591h3.25c.49 0 .886.396.886.886Z"/></g><defs><clipPath id="a"><path fill="#fff" d="M.905.548H19.81v18.905H.905z"/></clipPath></defs></svg>