<svg xmlns="http://www.w3.org/2000/svg" width="67" height="67" fill="none"><path fill="#F0B69C" d="M41.875 43.969v18.844h16.017a2.82 2.82 0 0 0 2.827-2.827V43.97H41.875Z"/><path fill="#074050" d="M41.875 43.969H23.031v18.843h18.844V43.97Z"/><path fill="#F0B69C" d="M4.188 43.969v16.017a2.82 2.82 0 0 0 2.826 2.827H23.03V43.968H4.188Z"/><path fill="#000" d="M23.031 27.219H4.188v18.843H23.03V27.22Z" opacity=".2"/><path fill="#F3D0B7" stroke="#F3D0B7" d="M4.688 43.469V25.625H22.53v17.844H4.688Z"/><path fill="#000" d="M41.875 27.219H23.031v18.843h18.844V27.22Z" opacity=".2"/><path fill="#3E95DE" d="M41.875 25.125H23.031v18.844h18.844V25.125Z"/><path fill="#000" d="M60.719 27.219H41.875v18.843h18.844V27.22Z" opacity=".2"/><path fill="#F3D0B7" stroke="#F3D0B7" d="M42.5 43.344V25.5h17.844v17.844H42.5Z"/><path fill="#000" d="M41.875 8.375v18.844h18.844V11.2a2.82 2.82 0 0 0-2.827-2.826H41.875Z" opacity=".2"/><path fill="#FFE5D3" d="M41.875 6.281v18.844h18.844V9.108a2.82 2.82 0 0 0-2.827-2.827H41.875Z"/><path fill="#000" d="M41.875 8.375H23.031v18.844h18.844V8.375Z" opacity=".2"/><path fill="#71B1C2" d="M41.875 6.281H23.031v18.844h18.844V6.281Z"/><path fill="#000" d="M7.014 8.375a2.82 2.82 0 0 0-2.827 2.826V27.22h18.844V8.375H7.014Z" opacity=".2"/><path fill="#B3D1D9" d="M7.014 6.281a2.82 2.82 0 0 0-2.827 2.827v16.017h18.844V6.281H7.014Z"/><path fill="#000" d="M4.188 59.986v2.094a2.82 2.82 0 0 0 2.825 2.826h50.878a2.82 2.82 0 0 0 2.827-2.826v-2.094a2.82 2.82 0 0 1-2.827 2.826H7.013a2.82 2.82 0 0 1-2.825-2.826Z" opacity=".2"/><path fill="#F6F7F1" d="M7.013 6.281a2.819 2.819 0 0 0-2.825 2.826v2.094a2.819 2.819 0 0 1 2.825-2.826h50.878a2.82 2.82 0 0 1 2.827 2.826V9.107a2.82 2.82 0 0 0-2.827-2.826H7.013Z" opacity=".2"/></svg>