<svg xmlns="http://www.w3.org/2000/svg" width="34" height="36" fill="none"><path fill="#F3D0B7" stroke="#F3D0B7" stroke-width=".3" d="M17.408 25.159h-.002l-2.844-.014-8.292-7.317V7.403c0-.632.506-1.133 1.13-1.133h19.2c.615 0 1.13.51 1.13 1.141v10.29l-8.354 7.469h-1.968v-.011ZM17.099.887 17 .8l-.1.087-4.32 3.803H7.397A2.702 2.702 0 0 0 4.69 7.4v4.233L.9 14.967l-.05.045V33.008a2.703 2.703 0 0 0 2.715 2.702h26.87a2.71 2.71 0 0 0 2.715-2.702V15.012l-.05-.045-3.79-3.334V7.4a2.705 2.705 0 0 0-2.707-2.71H21.42L17.1.887ZM14.93 4.69 17 2.864l2.07 1.826h-4.14ZM29.31 16.453v-2.734l1.544 1.361-1.544 1.373ZM4.69 13.719v2.734L3.146 15.08l1.544-1.362ZM29.394 34.13H4.605l8.61-7.38h7.57l8.61 7.38Zm1.913-.41-9.6-8.378 9.863-8.65V33c0 .271-.099.523-.263.72ZM2.43 16.691l9.862 8.65-9.599 8.38A1.122 1.122 0 0 1 2.43 33V16.69Z"/></svg>