<svg xmlns="http://www.w3.org/2000/svg" width="67" height="67" fill="none"><path fill="#074050" d="M34.547 61.766a1.047 1.047 0 0 1-1.047-1.047v-6.282a1.047 1.047 0 0 1 2.094 0v6.282a1.047 1.047 0 0 1-1.047 1.047ZM59.672 61.766a1.047 1.047 0 0 1-1.047-1.047v-6.282a1.047 1.047 0 0 1 2.094 0v6.282a1.047 1.047 0 0 1-1.047 1.047ZM47.11 61.766a1.047 1.047 0 0 1-1.047-1.047v-6.282a1.047 1.047 0 0 1 2.093 0v6.282a1.046 1.046 0 0 1-1.047 1.047ZM53.39 61.766a1.047 1.047 0 0 1-1.046-1.047v-6.282a1.047 1.047 0 1 1 2.093 0v6.282a1.047 1.047 0 0 1-1.046 1.047ZM40.828 61.766a1.047 1.047 0 0 1-1.047-1.047v-6.282a1.047 1.047 0 0 1 2.094 0v6.282a1.047 1.047 0 0 1-1.047 1.047Z"/><path fill="#F0B69C" d="M59.672 51.297H34.547A1.047 1.047 0 0 1 33.5 50.25V31.406a1.047 1.047 0 0 1 2.094 0v17.797h23.031V31.406a1.047 1.047 0 0 1 2.094 0V50.25a1.047 1.047 0 0 1-1.047 1.047Z"/><path fill="#F0B69C" d="M59.672 32.453H7.328a5.24 5.24 0 0 1-5.234-5.234v-16.75a5.24 5.24 0 0 1 5.234-5.235h41.875a1.047 1.047 0 1 1 0 2.094H7.328a3.14 3.14 0 0 0-3.14 3.14v16.75a3.14 3.14 0 0 0 3.14 3.141h52.344a3.14 3.14 0 0 0 3.14-3.14v-16.75a3.14 3.14 0 0 0-3.14-3.14h-2.094a1.047 1.047 0 0 1 0-2.095h2.094a5.24 5.24 0 0 1 5.234 5.235v16.75a5.24 5.24 0 0 1-5.234 5.234Z"/><path fill="#074050" d="M19.89 28.266a1.047 1.047 0 0 1-1.046-1.047v-16.75a1.047 1.047 0 1 1 2.093 0v16.75a1.047 1.047 0 0 1-1.046 1.047ZM13.61 28.266a1.047 1.047 0 0 1-1.047-1.047v-16.75a1.047 1.047 0 1 1 2.093 0v16.75a1.046 1.046 0 0 1-1.047 1.047Z"/><path fill="#074050" d="M27.219 16.75h-16.75a1.047 1.047 0 1 1 0-2.094h16.75a1.047 1.047 0 1 1 0 2.094ZM24.078 23.031H7.328a1.047 1.047 0 1 1 0-2.093h16.75a1.047 1.047 0 1 1 0 2.093ZM54.438 38.734H41.874a1.047 1.047 0 0 1 0-2.093h12.563a1.047 1.047 0 0 1 0 2.093ZM52.344 45.016H39.78a1.047 1.047 0 0 1 0-2.094h12.563a1.047 1.047 0 0 1 0 2.094Z"/><path fill="#074050" d="M43.969 47.11a1.047 1.047 0 0 1-1.047-1.047v-10.47a1.047 1.047 0 1 1 2.094 0v10.47a1.047 1.047 0 0 1-1.047 1.046ZM50.25 47.11a1.047 1.047 0 0 1-1.047-1.047v-10.47a1.047 1.047 0 1 1 2.094 0v10.47a1.047 1.047 0 0 1-1.047 1.046Z"/></svg>