<svg xmlns="http://www.w3.org/2000/svg" width="19" height="20" fill="none"><path fill="#F3D0B7" fill-rule="evenodd" d="M8.488 4.57c.553.613.378 1.309-.112 1.969-.116.156-.25.31-.411.48-.078.082-.139.143-.265.27l-.725.725c-.095.095.553 1.39 1.812 2.65 1.257 1.258 2.552 1.906 2.648 1.811l.724-.725c.399-.399.61-.591.9-.782.604-.396 1.262-.503 1.817-.007 1.812 1.296 2.838 2.092 3.34 2.614.98 1.018.852 2.585.006 3.48-.293.31-.665.682-1.105 1.105C14.46 20.82 8.851 19.2 4.553 14.9c-4.3-4.304-5.917-9.912-3.265-12.565.476-.484.633-.64 1.097-1.098.863-.85 2.503-.983 3.5.001.524.518 1.36 1.593 2.603 3.332Zm5.007 8.517-.724.725c-1.232 1.232-3.329-.41-5.32-2.403-1.994-1.995-3.043-3.5-1.811-4.732l.724-.725.232-.236c.087-.091.158-.171.215-.242-1.102-1.534-1.85-2.493-2.254-2.892-.209-.206-.675-.168-.847.001-.457.45-.607.6-1.081 1.082-1.706 1.706-.65 6.484 3.01 10.147 3.66 3.662 8.436 4.719 10.155 3 .432-.418.785-.77 1.056-1.057.196-.207.23-.635.005-.869-.375-.39-1.295-1.107-2.882-2.247a6.473 6.473 0 0 0-.478.448Z" clip-rule="evenodd"/></svg>