<svg xmlns="http://www.w3.org/2000/svg" width="67" height="67" fill="none"><path fill="#F0B69C" d="m33 2.905 6.955 4.03h8.06l4.03 7.02 7.02 4.03v8.06L63.095 33l-4.03 6.955v8.06l-7.02 4.03-4.03 7.02h-8.06L33 63.095l-6.955-4.03h-8.06l-4.03-7.02-7.02-4.03v-8.06L2.905 33l4.03-6.955v-8.06l7.02-4.03 4.03-7.02h8.06L33 2.905Z"/><path fill="#F6F7F1" d="M33 55.035c-12.155 0-22.035-9.88-22.035-22.035S20.845 10.965 33 10.965 55.035 20.845 55.035 33 45.155 55.035 33 55.035Zm0-42.185c-11.115 0-20.15 9.035-20.15 20.15 0 11.115 9.035 20.15 20.15 20.15 11.115 0 20.15-9.035 20.15-20.15 0-11.115-9.035-20.15-20.15-20.15Z"/><path fill="#074050" d="m30.595 41.19-9.555-7.605c-.78-.65-.91-1.755-.26-2.535.65-.78 1.755-.91 2.535-.26l8.19 6.565 10.92-12.22c.65-.715 1.82-.78 2.535-.13.715.65.78 1.82.13 2.535L33.065 40.995c-.65.715-1.755.78-2.47.195Z"/></svg>