<svg xmlns="http://www.w3.org/2000/svg" width="34" height="36" fill="none"><path fill="#F3D0B7" d="M25.034 21.305c-.944-.802-1.38-1.044-2.684-1.834-.544-.328-1.372-.612-1.806-.612-.297 0-.652.229-.87.448-.557.563-.74 1.266-1.717 1.266-.957 0-2.627-.981-3.825-2.25-1.258-1.208-2.232-2.892-2.232-3.857 0-.985.686-1.183 1.243-1.746.218-.218.457-.577.457-.876 0-.438-.28-1.26-.606-1.807-.783-1.316-1.023-1.756-1.82-2.707-.269-.323-.576-.47-.897-.47-.543-.002-1.256.27-1.74.633-.725.546-1.484 1.289-1.687 2.214a2.221 2.221 0 0 0-.049.38c-.039.964.337 1.943.742 2.772.955 1.954 2.218 3.844 3.593 5.533.439.54.918 1.042 1.413 1.527.481.5.98.982 1.515 1.426 1.674 1.386 3.55 2.66 5.486 3.622.815.405 1.774.777 2.72.75.136-.005.27-.02.406-.05.918-.204 1.655-.97 2.196-1.703.36-.487.63-1.205.628-1.753 0-.324-.146-.634-.466-.906ZM25.496 17.147a.854.854 0 0 1-.85-.857v-.857c0-4.253-3.432-7.714-7.65-7.714a.854.854 0 0 1-.85-.857c0-.474.381-.858.85-.858 5.155 0 9.35 4.23 9.35 9.429v.857c0 .473-.38.857-.85.857ZM20.277 15.431a.851.851 0 0 1-.822-.641 2.55 2.55 0 0 0-1.82-1.836.859.859 0 0 1-.61-1.045.85.85 0 0 1 1.036-.615 4.263 4.263 0 0 1 3.039 3.063.858.858 0 0 1-.823 1.074Z"/><path fill="#F3D0B7" d="M22.945 16.288a.854.854 0 0 1-.85-.857c0-2.732-2.12-4.987-4.826-5.13a.854.854 0 0 1-.804-.901.856.856 0 0 1 .893-.811c3.61.192 6.437 3.198 6.437 6.842 0 .473-.38.857-.85.857Z"/><path fill="#F3D0B7" d="M17 0C13.175 0 7.215.355 3.584 3.7 1.017 6.276 0 9.891 0 14.57c0 .388-.001.82.002 1.286C0 16.323 0 16.755 0 17.142c0 4.68 1.017 8.295 3.584 10.872 1.382 1.273 3.106 2.11 4.916 2.662v3.931C8.5 35.975 9.392 36 9.555 36h.008c.42-.002.783-.21 1.147-.535.136-.122 1.717-1.898 3.435-3.84 1.024.065 1.996.09 2.855.09 3.825 0 9.784-.356 13.416-3.701C32.982 25.437 34 21.821 34 17.142c0-.387.001-.82-.002-1.286.003-.466.002-.897.002-1.285 0-4.68-1.017-8.295-3.584-10.872C26.785.355 20.826 0 17 0Zm14.45 16.844v.298c0 4.205-.888 7.07-2.793 9.01-3.3 2.99-9.585 2.99-11.657 2.99-.631 0-1.655 0-2.862-.085L10.2 33.5v-5.026c-1.788-.433-3.555-1.142-4.856-2.32-1.905-1.941-2.794-4.807-2.794-9.012v-.298c0-.301 0-.626.002-1.006a93.871 93.871 0 0 1-.002-.968v-.299c0-4.205.889-7.07 2.794-9.01 3.298-2.99 9.585-2.99 11.656-2.99 2.072 0 8.358 0 11.657 2.99 1.905 1.94 2.793 4.805 2.793 9.01v.299c0 .3 0 .625-.002 1.005.002.344.002.668.002.969Z"/></svg>